# xmcd
#
# Track frame offsets:
#	150
#	23597
#	38195
#	61520
#	79420
#	99484
#	115966
#	134311
#	154591
#	177976
#	192531
#	215806
#	233601
#	253654
#	270176
#	288519
#	320221
#
# Disc length: 4282 seconds
#
# Revision: 0
# Processed by: cddbd v1.5PL3 Copyright (c) Steve Scherf et al.
# Submitted via: audiograbber 1.83.01
#
DISCID=ef10b811
DTITLE=Various Artist - Karaoke SC1012
DYEAR=1900
DGENRE=
TTITLE0=Alan Jackson - Where Were You (When The World Stop
TTITLE1=Toby Keith - I Wanna Talk About Me
TTITLE2=Garth Brooks - Wrapped Up In You
TTITLE3=Rascal Flatts - I'm Movin' On
TTITLE4=George Strait - Run
TTITLE5=Brad Paisley - Wrapped Around
TTITLE6=Nickel Creek - When You Come Back Down
TTITLE7=David Ball - Riding With Private Malone
TTITLE8=Alan Jackson (Vocal) - Where Were You (When The World Stop
TTITLE9=Toby Keith (Vocal) - I Wanna Talk About Me
TTITLE10=Garth Brooks (Vocal) - Wrapped Up In You
TTITLE11=Rascal Flatts (Vocal) - I'm Movin' On
TTITLE12=George Strait (Vocal) - Run
TTITLE13=Brad Paisley (Vocal) - Wrapped Around
TTITLE14=Nickel Creek (Vocal) - When You Come Back Down
TTITLE15=David Ball (Vocal) - Riding With Private Malone
TTITLE16=DATA - Data Track
EXTD=
EXTT0=
EXTT1=
EXTT2=
EXTT3=
EXTT4=
EXTT5=
EXTT6=
EXTT7=
EXTT8=
EXTT9=
EXTT10=
EXTT11=
EXTT12=
EXTT13=
EXTT14=
EXTT15=
EXTT16=
PLAYORDER=
